<svg id="Calque_1" data-name="Calque 1" xmlns="http://www.w3.org/2000/svg" viewBox="0 0 371 371" max-height="137px">
  <defs>
  </defs>
  <title>MYA_Logo2</title>
  <polygon class="cls-1" points="222.54 77.59 185.51 141.73 148.46 77.59 135.33 85.18 176.76 156.89 102.32 285.82 115.45 293.4 235.67 85.18 222.54 77.59"
  />
  <polygon points="198.94 165.03 190.19 180.19 225.79 241.85 154.58 241.85 145.83 257.02 234.54 257.02 255.55 293.4 268.68 285.82 198.94 165.03"
  />
  <path class="cls-2" d="M185.5,346.33c-88.68,0-160.83-72.15-160.83-160.83S96.82,24.67,185.5,24.67,346.33,96.82,346.33,185.5,274.18,346.33,185.5,346.33Zm0-306.5c-80.32,0-145.67,65.35-145.67,145.67S105.18,331.17,185.5,331.17,331.17,265.82,331.17,185.5,265.82,39.83,185.5,39.83Z"
  />
</svg>
