<svg xmlns="http://www.w3.org/2000/svg" viewBox="0 0 321.67 321.67"></svg>
    <defs>
        <style>
            .cls-1 {
                fill: #916e2c;
            }

            .cls-2 {
                fill: #222221;
            }
        </style>
    </defs>
    <title>Asset 1</title>
    <g id="Layer_2" data-name="Layer 2">
        <g id="Calque_1" data-name="Calque 1">
            <polygon class="cls-1" points="197.87 52.93 160.84 117.06 123.79 52.93 110.67 60.51 152.09 132.22 77.65 261.15 90.78 268.74 211 60.51 197.87 52.93"
            />
            <path d="M214,217.19" />
            <polygon points="174.27 140.36 165.52 155.52 201.12 217.19 129.92 217.19 121.16 232.35 209.88 232.35 230.88 268.74 244.01 261.15 174.27 140.36"
            />
            <path class="cls-2" d="M160.83,321.67C72.15,321.67,0,249.52,0,160.83S72.15,0,160.83,0,321.67,72.15,321.67,160.83,249.52,321.67,160.83,321.67Zm0-306.5c-80.32,0-145.67,65.35-145.67,145.67S80.51,306.5,160.83,306.5,306.5,241.16,306.5,160.83,241.16,15.16,160.83,15.16Z"
            />
        </g>
    </g>
</svg>